<svg width="25" height="23" viewBox="0 0 25 23" fill="none" xmlns="http://www.w3.org/2000/svg">
<g clip-path="url(#clip0_12_721)">
<path d="M4.5397 14.4096C4.88523 14.0922 5.42273 14.0953 5.76507 14.4159C7.93105 16.4544 10.1354 18.5241 12.3558 20.6156C15.5616 17.5842 18.7482 14.5715 21.9348 11.5588C21.9188 11.5339 21.9028 11.5059 21.8836 11.481C21.8196 11.4716 21.7524 11.4561 21.6884 11.4561C20.0727 11.4561 18.457 11.4498 16.8445 11.4623C16.7038 11.4623 16.5662 11.5214 16.4702 11.621C15.4336 12.673 14.413 13.7405 13.3828 14.7987C12.8197 15.3776 12.0807 15.2531 11.7479 14.5217C10.8425 12.5329 9.94026 10.5441 9.03484 8.55538C8.98685 8.44645 8.93246 8.34374 8.86207 8.20058C8.78529 8.30951 8.7245 8.39043 8.67331 8.47135C8.15181 9.31167 7.62391 10.1489 7.10881 10.9954C6.76327 11.5619 5.84505 11.3471 4.80845 11.3596C3.44871 11.3782 1.9354 11.4187 1.00118 11.4436C0.514874 11.4561 0.111751 11.0732 0.111751 10.6002C0.111751 10.1333 0.498877 9.75362 0.975585 9.75362C2.30973 9.75362 4.14298 9.75362 5.49312 9.75985C5.67548 9.75985 5.84185 9.66959 5.93463 9.51709C6.66729 8.32818 7.41915 7.14861 8.15821 5.95971C8.36297 5.62981 8.62852 5.41194 9.03804 5.43684C9.46036 5.46174 9.70031 5.71384 9.86348 6.07798C10.8137 8.16012 11.7703 10.236 12.7269 12.3151C12.7813 12.4333 12.8389 12.5516 12.9093 12.6948C12.9861 12.6294 13.0501 12.5827 13.1013 12.5267C13.8851 11.7268 14.6754 10.9332 15.4432 10.1178C15.7344 9.80653 16.0639 9.68515 16.4894 9.68826C18.5018 9.70071 20.511 9.69449 22.5234 9.69449H22.9266C23.0226 9.24943 23.1601 8.8137 23.2017 8.36864C23.4033 6.27094 22.7314 4.47514 21.0709 3.10883C19.3529 1.69584 17.3372 1.72385 15.2448 2.50816C14.4482 2.80694 13.7603 3.30802 13.146 3.89002C12.6086 4.40044 12.1574 4.36932 11.5719 3.89002C10.8873 3.33292 10.1898 2.77893 9.43796 2.31519C8.05583 1.46553 6.59051 1.58069 5.15718 2.18136C3.27274 2.97189 2.39291 3.54456 1.87781 5.46485C1.86821 5.49909 1.82022 5.65782 1.75943 5.84767C1.62506 6.27094 1.18994 6.52615 0.74203 6.44523H0.726033C0.201334 6.34564 -0.115405 5.82899 0.0381654 5.33414C0.0573617 5.27189 0.076558 5.20964 0.0989537 5.1474C1.22194 1.89814 4.40533 -0.208895 7.85746 0.0151916C8.75969 0.0743256 9.58833 0.382445 10.3466 0.836842C10.9385 1.19165 11.4856 1.61492 12.0519 2.01018C12.1414 2.07243 12.2246 2.15024 12.3206 2.23116C13.2004 1.51844 14.1603 0.976897 15.2384 0.653216C17.6956 -0.0812901 20.0503 0.0712133 22.0883 1.70518C24.1039 3.32047 25.0702 5.47108 24.9966 8.01695C24.9358 10.1178 23.9664 12.0972 22.4083 13.5538C19.1257 16.6287 15.8527 19.713 12.5766 22.7911C12.5094 22.8534 12.439 22.9125 12.3462 22.9934C9.7387 20.5471 7.1408 18.104 4.5333 15.6577C4.16857 15.3153 4.17177 14.7427 4.5397 14.4065V14.4096Z" fill="#162C51"/>
</g>
<defs>
<clipPath id="clip0_12_721">
<rect width="25" height="23" fill="white"/>
</clipPath>
</defs>
</svg>
