<svg xmlns="http://www.w3.org/2000/svg" version="1.0" width="2000.000000pt" height="2000.000000pt" viewBox="0 0 2000.000000 2000.000000" preserveAspectRatio="xMidYMid meet">
<metadata>
Created by potrace 1.16, written by Peter Selinger 2001-2019
</metadata>
<g transform="translate(0.000000,2000.000000) scale(0.100000,-0.100000)" fill="#000000" stroke="none">
<path d="M5833 13696 c-120 -69 -294 -220 -384 -332 -47 -60 -54 -74 -60 -128 -5 -47 -20 -89 -69 -186 -66 -130 -94 -185 -110 -210 -50 -80 -176 -310 -252 -460 -112 -218 -173 -328 -276 -494 -41 -66 -100 -164 -130 -216 -104 -180 -453 -763 -577 -965 -37 -60 -121 -202 -187 -315 -106 -182 -160 -272 -235 -398 -12 -21 -29 -50 -37 -67 -9 -16 -40 -68 -68 -115 -29 -47 -75 -121 -102 -165 -119 -192 -227 -360 -420 -649 -113 -170 -206 -310 -206 -312 0 -7 -232 -349 -333 -489 -206 -289 -344 -451 -508 -600 -69 -63 -195 -145 -221 -145 -6 0 -24 -7 -41 -15 -78 -36 -291 -70 -382 -60 -112 12 -257 78 -338 154 -75 69 -121 226 -120 406 1 223 73 512 149 596 8 8 14 20 14 25 0 5 24 38 53 73 56 69 71 77 206 112 89 23 140 24 219 4 71 -18 197 -78 230 -108 29 -27 72 -109 72 -138 0 -18 4 -20 27 -14 74 18 373 277 443 384 36 53 37 67 8 128 -40 86 -118 140 -278 192 -68 23 -187 28 -250 11 -19 -5 -64 -16 -100 -25 -36 -9 -69 -20 -74 -25 -6 -6 -17 -10 -26 -10 -24 0 -182 -84 -258 -136 -240 -168 -428 -358 -663 -671 -64 -85 -158 -244 -183 -312 -61 -160 -104 -436 -91 -580 15 -178 58 -283 146 -365 119 -110 286 -165 458 -152 236 20 427 89 641 233 39 26 79 53 88 58 9 6 48 35 87 65 38 31 86 67 105 82 144 107 655 620 729 732 9 13 45 60 81 104 60 74 206 269 263 352 13 19 44 65 70 102 93 134 452 676 662 998 48 74 96 147 106 162 11 15 19 29 19 32 0 3 26 47 59 98 94 149 353 584 439 738 23 42 90 155 112 190 5 8 37 62 72 119 35 58 72 119 83 137 59 95 215 354 232 384 11 19 34 58 51 85 16 28 88 148 158 269 155 262 152 258 236 393 83 136 127 213 135 236 4 13 23 26 23 15 0 -7 -81 -371 -98 -443 -139 -582 -192 -863 -292 -1555 -97 -671 -117 -790 -222 -1270 -11 -52 -26 -122 -32 -155 -11 -55 -14 -60 -45 -69 -36 -10 -29 -16 -104 74 -89 107 -222 252 -248 271 -35 25 -138 59 -177 59 -64 0 -166 -52 -292 -149 -255 -195 -410 -403 -410 -549 0 -69 9 -90 44 -111 69 -42 148 -54 416 -60 l255 -6 37 -64 c53 -91 112 -249 147 -393 65 -266 94 -775 66 -1165 -9 -117 -4 -125 59 -99 86 36 322 240 401 348 l42 56 7 134 c8 145 24 299 56 538 12 85 28 207 35 270 8 63 17 126 20 140 3 14 12 86 20 160 23 205 14 186 98 194 40 3 99 11 132 17 33 5 103 16 155 24 52 8 129 22 170 30 41 9 118 24 170 35 90 18 214 46 308 70 24 6 60 8 79 4 31 -6 44 0 121 52 50 34 141 112 212 184 214 213 211 255 -15 201 -149 -36 -256 -60 -430 -96 -83 -17 -247 -44 -300 -50 -33 -3 -89 -10 -125 -16 -52 -8 -264 -27 -455 -42 -16 -1 -29 3 -28 8 23 137 77 403 128 640 43 200 58 274 80 390 30 166 61 349 74 445 6 41 20 138 31 215 11 77 27 187 35 245 8 58 24 161 35 230 10 69 26 170 35 225 16 104 27 162 71 380 37 181 76 360 112 510 39 161 95 412 113 505 65 331 102 851 61 850 -4 0 -26 -11 -49 -24z"/>
<path d="M16194 13376 c-126 -72 -366 -289 -416 -376 -18 -30 -35 -90 -52 -180 -15 -74 -35 -171 -46 -215 -54 -224 -142 -606 -186 -810 -16 -79 -123 -622 -154 -790 -12 -60 -34 -173 -50 -250 -16 -77 -36 -174 -44 -215 -9 -41 -25 -118 -36 -170 -11 -52 -27 -126 -35 -165 -8 -38 -30 -146 -50 -240 -69 -329 -114 -557 -115 -576 0 -4 -8 -9 -17 -12 -93 -31 -139 -53 -268 -132 -150 -92 -485 -418 -485 -473 0 -37 98 8 205 94 89 72 215 96 363 69 53 -10 100 -21 104 -24 4 -4 -1 -60 -12 -126 -11 -66 -24 -149 -30 -185 -16 -106 -48 -414 -60 -575 -13 -194 -13 -656 0 -764 18 -136 65 -245 122 -280 31 -20 146 -26 217 -12 93 18 262 109 404 217 20 16 65 49 98 74 260 192 499 430 499 495 0 20 -2 19 -61 -11 -56 -28 -126 -75 -211 -144 -189 -150 -265 -190 -364 -190 -167 0 -214 136 -214 615 0 138 4 315 11 395 16 215 37 423 44 443 5 10 18 17 34 17 30 0 168 33 216 52 184 72 318 165 574 398 158 145 291 304 270 325 -10 9 -73 -18 -124 -53 -69 -48 -216 -165 -239 -191 -11 -12 -24 -21 -30 -21 -6 0 -23 -7 -39 -15 -15 -8 -76 -24 -134 -36 -88 -18 -127 -21 -218 -16 -107 6 -211 23 -228 38 -5 4 0 56 12 115 11 60 30 161 41 224 28 152 80 410 130 640 11 52 27 129 35 170 9 41 24 118 35 170 11 52 30 140 41 195 11 55 27 129 35 165 7 36 18 90 24 120 6 30 19 98 30 150 11 52 29 147 40 210 29 157 128 656 140 705 5 22 21 94 35 160 15 66 40 176 56 245 82 339 93 389 130 569 29 145 35 201 22 201 -5 0 -27 -11 -49 -24z"/>
<path d="M13625 9384 c-157 -33 -354 -147 -593 -345 -450 -373 -629 -597 -649 -813 -7 -82 12 -128 66 -155 50 -26 132 -35 191 -22 25 5 77 17 115 26 190 44 345 56 456 35 94 -18 215 -86 294 -165 58 -57 76 -83 100 -145 26 -67 29 -87 30 -190 0 -127 -9 -156 -53 -166 -15 -4 -31 -10 -37 -14 -12 -9 -150 -38 -250 -52 -152 -21 -360 12 -468 75 -51 30 -80 76 -90 140 -5 34 -2 42 38 87 94 106 83 129 -30 63 -44 -25 -114 -71 -155 -101 -88 -65 -281 -256 -329 -326 -33 -47 -33 -51 -27 -119 3 -38 13 -84 22 -102 40 -84 134 -132 329 -167 l120 -21 159 22 c88 13 167 27 175 32 9 4 36 13 61 18 173 37 387 157 605 337 349 288 490 580 416 861 -22 85 -53 140 -114 209 -46 50 -147 117 -226 148 -60 23 -173 46 -229 46 -53 -1 -276 -37 -426 -70 -95 -20 -101 -20 -152 -4 -76 24 -89 42 -88 123 2 114 53 193 165 258 90 51 282 58 369 13 71 -36 163 -137 205 -225 l37 -75 60 32 c116 62 390 321 419 397 24 62 -116 257 -226 314 -78 40 -206 58 -290 41z"/>
<path d="M7067 9329 c-91 -21 -347 -207 -474 -343 -74 -78 -183 -223 -183 -242 0 -43 121 17 239 119 31 26 39 29 82 23 174 -23 314 -176 340 -370 18 -134 -4 -365 -52 -555 -63 -246 -54 -224 -325 -779 -123 -251 -134 -280 -113 -292 62 -39 545 398 525 474 -6 24 -11 12 174 391 199 405 270 634 295 948 l7 79 76 36 c69 32 86 36 162 36 69 1 93 -3 125 -21 99 -53 214 -231 250 -385 34 -150 25 -395 -25 -635 -27 -129 -46 -186 -117 -341 -18 -41 -33 -76 -33 -78 0 -2 -16 -39 -36 -81 -103 -224 -137 -324 -115 -337 19 -12 83 23 187 105 164 129 314 297 314 352 0 17 73 192 156 372 90 197 123 296 149 440 29 161 35 208 41 351 l7 141 46 14 c32 10 98 14 221 14 165 0 177 -1 220 -24 25 -13 75 -53 112 -88 57 -55 71 -76 92 -137 30 -85 46 -169 46 -247 0 -126 -87 -408 -206 -667 -19 -41 -34 -76 -34 -79 0 -3 -6 -19 -14 -36 -8 -18 -27 -61 -41 -97 -14 -36 -33 -81 -42 -100 -8 -19 -22 -51 -31 -70 -8 -19 -30 -68 -48 -108 -35 -75 -41 -102 -24 -102 6 0 10 -11 10 -25 0 -46 32 -65 110 -65 117 0 207 46 363 184 72 63 167 175 167 197 0 15 -27 10 -95 -17 -52 -21 -72 -24 -101 -17 -61 14 -63 32 -13 99 45 59 119 193 119 215 0 6 7 25 15 42 8 18 29 70 48 117 28 70 125 297 182 425 7 17 17 44 21 60 4 17 10 35 14 40 4 6 19 51 34 100 15 50 32 101 36 115 48 136 34 371 -31 506 -33 71 -116 153 -198 198 -70 37 -159 47 -326 35 -129 -10 -150 -13 -255 -43 -56 -16 -62 -18 -141 -55 -25 -11 -52 -21 -60 -21 -8 -1 -32 -9 -54 -20 -22 -11 -47 -20 -55 -20 -8 0 -28 -7 -44 -15 -15 -8 -33 -15 -40 -15 -6 0 -24 -7 -41 -16 -16 -8 -31 -11 -33 -6 -7 21 -76 130 -113 180 -67 88 -147 125 -266 124 -135 -2 -313 -87 -604 -289 -49 -35 -91 -63 -93 -63 -2 0 -9 21 -16 48 -30 113 -111 223 -205 277 -81 48 -196 66 -288 44z"/>
<path d="M11348 9290 c-43 -10 -95 -25 -115 -35 -73 -32 -189 -93 -253 -133 -36 -22 -110 -64 -165 -93 -195 -102 -323 -197 -490 -364 -191 -192 -243 -280 -335 -573 -93 -294 -90 -410 18 -697 17 -44 42 -101 56 -126 31 -54 116 -137 166 -161 89 -42 326 -116 419 -130 106 -16 461 -12 571 7 242 40 289 47 354 52 l69 5 -67 -77 c-36 -43 -66 -84 -66 -92 0 -51 202 65 355 204 100 92 310 323 336 369 26 48 23 57 -18 56 -74 -3 -269 -21 -292 -27 -111 -28 -305 -49 -496 -52 -228 -5 -257 -1 -442 51 -266 76 -334 119 -404 257 -36 71 -88 216 -81 224 3 3 66 5 141 5 276 0 606 33 756 74 90 26 239 101 335 169 47 34 148 124 225 202 175 174 204 224 212 368 7 108 -6 145 -82 252 -161 226 -432 328 -707 265z m-96 -470 c86 -27 175 -86 245 -158 62 -65 138 -185 130 -206 -4 -10 -38 -16 -134 -20 -70 -4 -158 -11 -195 -16 -98 -14 -583 -12 -669 2 -70 12 -72 12 -120 -15 -55 -30 -59 -25 -35 40 8 21 26 76 41 123 l27 85 75 45 c125 74 175 101 231 122 105 40 279 39 404 -2z"/>
<path d="M17805 9250 c-225 -49 -428 -180 -800 -516 -306 -278 -465 -508 -570 -829 -56 -171 -61 -412 -12 -557 66 -192 147 -309 254 -365 80 -42 251 -71 325 -55 29 6 73 14 98 18 25 3 50 10 55 14 6 4 25 11 43 15 32 7 150 64 222 107 75 46 270 212 379 322 63 64 115 115 116 114 1 -2 16 -49 33 -105 65 -205 181 -386 290 -450 41 -25 57 -28 129 -27 75 0 87 3 161 41 89 46 169 102 300 209 98 81 251 236 282 286 19 31 27 68 15 68 -18 0 -85 -36 -156 -84 -72 -50 -87 -56 -132 -56 -69 0 -126 30 -188 98 -122 137 -205 340 -231 564 l-11 98 35 72 c44 93 58 146 109 408 36 188 41 226 35 298 -3 46 -11 92 -16 103 -11 19 -11 19 -48 0 -114 -59 -376 -292 -445 -397 -87 -131 -177 -527 -177 -780 0 -94 -1 -97 -41 -164 -22 -38 -85 -115 -139 -173 l-99 -104 -76 -16 c-93 -21 -151 -21 -248 -3 -169 33 -263 122 -338 324 -97 259 -76 489 72 787 61 123 67 133 102 167 65 64 213 118 325 118 91 0 232 -34 291 -70 53 -33 121 -104 121 -127 0 -27 50 -12 122 36 129 87 344 295 383 371 15 29 15 32 -15 75 -56 81 -170 150 -275 164 -132 19 -198 19 -280 1z"/>
<path d="M13060 8081 c0 -8 141 -120 259 -207 52 -37 165 -127 222 -176 l56 -48 -8 43 c-21 117 -90 212 -207 290 -106 70 -122 75 -289 103 -18 3 -33 1 -33 -5z"/>
</g>
</svg>

