<?xml version="1.0" standalone="no"?>
<!DOCTYPE svg PUBLIC "-//W3C//DTD SVG 20010904//EN"
 "http://www.w3.org/TR/2001/REC-SVG-20010904/DTD/svg10.dtd">
<svg version="1.0" xmlns="http://www.w3.org/2000/svg"
 width="2000.000000pt" height="2000.000000pt" viewBox="0 0 2000.000000 2000.000000"
 preserveAspectRatio="xMidYMid meet">
<metadata>
Created by potrace 1.16, written by Peter Selinger 2001-2019
</metadata>
<g transform="translate(0.000000,2000.000000) scale(0.100000,-0.100000)"
fill="#000000" stroke="none">
<path d="M12270 17642 c-186 -49 -352 -198 -419 -378 -93 -247 -4 -571 201
-734 l49 -39 -43 -12 c-24 -6 -203 -53 -398 -104 -1593 -415 -2014 -534 -2495
-705 -828 -295 -1410 -591 -1825 -928 -530 -431 -785 -838 -840 -1341 -50
-450 153 -1054 514 -1535 223 -297 639 -724 947 -971 212 -171 523 -401 725
-535 248 -166 304 -208 427 -322 111 -103 153 -128 212 -128 97 0 173 50 195
128 29 106 -3 198 -97 280 -34 28 -65 52 -70 52 -6 0 -30 17 -54 38 -68 60
-218 168 -404 292 -182 122 -441 312 -675 499 -161 127 -595 553 -746 731
-246 290 -391 540 -498 862 -65 193 -80 285 -80 463 0 129 4 165 27 258 30
122 78 244 131 334 130 222 404 499 701 709 521 370 1419 741 2500 1034 379
103 1440 383 1720 455 767 196 1113 330 1283 495 55 54 86 104 113 182 28 84
23 225 -12 308 -90 215 -290 402 -572 540 -177 86 -364 112 -517 72z m237
-501 c104 -41 125 -58 162 -133 25 -49 31 -74 31 -125 0 -56 -3 -67 -26 -88
-67 -62 -273 -37 -367 45 -104 92 -130 277 -44 322 48 26 143 18 244 -21z"/>
<path d="M11330 15550 c-200 -12 -524 -77 -750 -152 -383 -126 -609 -239 -970
-485 -14 -10 -79 -60 -145 -112 -337 -267 -602 -592 -786 -961 -65 -132 -86
-186 -139 -360 -70 -234 -83 -324 -88 -608 -3 -243 -2 -260 24 -395 38 -200
108 -437 169 -572 203 -450 442 -784 849 -1190 191 -190 351 -340 382 -358 8
-5 12 -13 8 -18 -3 -5 -1 -8 4 -7 5 2 83 -56 173 -129 293 -235 610 -471 918
-684 257 -178 294 -200 315 -194 12 4 92 9 178 12 185 6 267 -8 380 -65 93
-46 217 -167 279 -272 44 -74 44 -75 49 -189 l5 -114 70 -49 c210 -146 188
-137 218 -88 13 22 61 81 105 129 60 66 78 91 69 99 -6 5 -36 26 -64 46 -29
20 -76 52 -105 72 -68 48 -237 164 -508 349 -80 54 -185 126 -234 159 -49 34
-104 70 -121 81 -66 41 -352 239 -544 375 -74 52 -159 113 -190 134 -31 22
-80 58 -110 80 -29 23 -63 48 -75 56 -41 29 -181 134 -196 147 -8 8 -49 40
-90 71 -84 64 -400 327 -472 394 -494 457 -788 843 -976 1283 -43 99 -81 200
-86 227 -2 13 -15 64 -29 113 -59 214 -79 507 -48 695 7 41 16 102 21 134 21
143 118 411 204 566 40 73 125 208 154 245 228 297 395 459 670 650 97 67 125
84 292 180 70 39 302 149 341 160 13 3 51 17 84 29 96 37 216 75 265 85 25 5
83 18 130 29 405 96 865 94 1250 -5 86 -22 117 -32 245 -80 68 -25 283 -133
295 -149 7 -7 17 -14 23 -14 32 0 257 -177 356 -280 59 -62 148 -176 182 -235
44 -76 109 -208 109 -222 0 -8 8 -30 18 -51 11 -20 34 -98 53 -172 33 -133 33
-138 32 -350 0 -199 -2 -222 -27 -315 -14 -55 -26 -106 -26 -113 0 -25 -50
-145 -106 -257 -126 -252 -307 -440 -589 -613 -86 -52 -317 -152 -354 -152 -9
0 -45 -9 -81 -21 -83 -26 -266 -49 -390 -49 -123 0 -308 23 -390 49 -36 12
-71 21 -79 21 -13 0 -77 26 -196 78 -74 33 -185 106 -247 161 -74 65 -185 246
-216 352 -6 19 -18 55 -26 82 l-15 47 32 -24 c141 -106 371 -178 522 -162 183
20 350 116 421 241 71 129 123 313 124 441 0 89 -33 223 -72 294 -39 70 -136
189 -186 229 -22 17 -87 55 -146 86 -118 61 -149 66 -253 41 -32 -8 -94 -18
-138 -21 -165 -14 -347 -120 -438 -255 -58 -86 -74 -112 -105 -170 -78 -150
-116 -314 -116 -515 -1 -176 35 -338 116 -525 157 -363 443 -592 908 -725 103
-29 223 -49 390 -65 110 -10 251 -3 410 21 81 12 308 73 405 109 77 28 258
116 310 151 22 14 60 39 85 55 314 202 579 531 702 869 230 634 117 1328 -297
1825 -152 181 -356 350 -568 471 -64 36 -295 149 -305 149 -4 0 -41 13 -82 29
-298 117 -713 167 -1170 141z m-109 -1986 c7 -8 34 -26 59 -39 94 -48 168
-164 177 -279 4 -52 2 -66 -19 -95 -35 -53 -82 -76 -153 -76 -110 1 -231 60
-282 136 -24 36 -28 53 -28 108 1 105 44 169 155 230 63 35 73 37 91 15z"/>
<path d="M5833 13696 c-120 -69 -294 -220 -384 -332 -47 -60 -54 -74 -60 -128
-5 -47 -20 -89 -69 -186 -66 -130 -94 -185 -110 -210 -50 -80 -176 -310 -252
-460 -112 -218 -173 -328 -276 -494 -41 -66 -100 -164 -130 -216 -104 -180
-453 -763 -577 -965 -37 -60 -121 -202 -187 -315 -106 -182 -160 -272 -235
-398 -12 -21 -29 -50 -37 -67 -9 -16 -40 -68 -68 -115 -29 -47 -75 -121 -102
-165 -119 -192 -227 -360 -420 -649 -113 -170 -206 -310 -206 -312 0 -7 -232
-349 -333 -489 -206 -289 -344 -451 -508 -600 -69 -63 -195 -145 -221 -145 -6
0 -24 -7 -41 -15 -78 -36 -291 -70 -382 -60 -112 12 -257 78 -338 154 -75 69
-121 226 -120 406 1 223 73 512 149 596 8 8 14 20 14 25 0 5 24 38 53 73 56
69 71 77 206 112 89 23 140 24 219 4 71 -18 197 -78 230 -108 29 -27 72 -109
72 -138 0 -18 4 -20 27 -14 74 18 373 277 443 384 36 53 37 67 8 128 -40 86
-118 140 -278 192 -68 23 -187 28 -250 11 -19 -5 -64 -16 -100 -25 -36 -9 -69
-20 -74 -25 -6 -6 -17 -10 -26 -10 -24 0 -182 -84 -258 -136 -240 -168 -428
-358 -663 -671 -64 -85 -158 -244 -183 -312 -61 -160 -104 -436 -91 -580 15
-178 58 -283 146 -365 119 -110 286 -165 458 -152 236 20 427 89 641 233 39
26 79 53 88 58 9 6 48 35 87 65 38 31 86 67 105 82 144 107 655 620 729 732 9
13 45 60 81 104 60 74 206 269 263 352 13 19 44 65 70 102 93 134 452 676 662
998 48 74 96 147 106 162 11 15 19 29 19 32 0 3 26 47 59 98 94 149 353 584
439 738 23 42 90 155 112 190 5 8 37 62 72 119 35 58 72 119 83 137 59 95 215
354 232 384 11 19 34 58 51 85 16 28 88 148 158 269 155 262 152 258 236 393
83 136 127 213 135 236 4 13 23 26 23 15 0 -7 -81 -371 -98 -443 -139 -582
-192 -863 -292 -1555 -97 -671 -117 -790 -222 -1270 -11 -52 -26 -122 -32
-155 -11 -55 -14 -60 -45 -69 -36 -10 -29 -16 -104 74 -89 107 -222 252 -248
271 -35 25 -138 59 -177 59 -64 0 -166 -52 -292 -149 -255 -195 -410 -403
-410 -549 0 -69 9 -90 44 -111 69 -42 148 -54 416 -60 l255 -6 37 -64 c53 -91
112 -249 147 -393 65 -266 94 -775 66 -1165 -9 -117 -4 -125 59 -99 86 36 322
240 401 348 l42 56 7 134 c8 145 24 299 56 538 12 85 28 207 35 270 8 63 17
126 20 140 3 14 12 86 20 160 23 205 14 186 98 194 40 3 99 11 132 17 33 5
103 16 155 24 52 8 129 22 170 30 41 9 118 24 170 35 90 18 214 46 308 70 24
6 60 8 79 4 31 -6 44 0 121 52 50 34 141 112 212 184 214 213 211 255 -15 201
-149 -36 -256 -60 -430 -96 -83 -17 -247 -44 -300 -50 -33 -3 -89 -10 -125
-16 -52 -8 -264 -27 -455 -42 -16 -1 -29 3 -28 8 23 137 77 403 128 640 43
200 58 274 80 390 30 166 61 349 74 445 6 41 20 138 31 215 11 77 27 187 35
245 8 58 24 161 35 230 10 69 26 170 35 225 16 104 27 162 71 380 37 181 76
360 112 510 39 161 95 412 113 505 65 331 102 851 61 850 -4 0 -26 -11 -49
-24z"/>
<path d="M16194 13376 c-126 -72 -366 -289 -416 -376 -18 -30 -35 -90 -52
-180 -15 -74 -35 -171 -46 -215 -54 -224 -142 -606 -186 -810 -16 -79 -123
-622 -154 -790 -12 -60 -34 -173 -50 -250 -16 -77 -36 -174 -44 -215 -9 -41
-25 -118 -36 -170 -11 -52 -27 -126 -35 -165 -8 -38 -30 -146 -50 -240 -69
-329 -114 -557 -115 -576 0 -4 -8 -9 -17 -12 -93 -31 -139 -53 -268 -132 -150
-92 -485 -418 -485 -473 0 -37 98 8 205 94 89 72 215 96 363 69 53 -10 100
-21 104 -24 4 -4 -1 -60 -12 -126 -11 -66 -24 -149 -30 -185 -16 -106 -48
-414 -60 -575 -13 -194 -13 -656 0 -764 18 -136 65 -245 122 -280 31 -20 146
-26 217 -12 93 18 262 109 404 217 20 16 65 49 98 74 260 192 499 430 499 495
0 20 -2 19 -61 -11 -56 -28 -126 -75 -211 -144 -189 -150 -265 -190 -364 -190
-167 0 -214 136 -214 615 0 138 4 315 11 395 16 215 37 423 44 443 5 10 18 17
34 17 30 0 168 33 216 52 184 72 318 165 574 398 158 145 291 304 270 325 -10
9 -73 -18 -124 -53 -69 -48 -216 -165 -239 -191 -11 -12 -24 -21 -30 -21 -6 0
-23 -7 -39 -15 -15 -8 -76 -24 -134 -36 -88 -18 -127 -21 -218 -16 -107 6
-211 23 -228 38 -5 4 0 56 12 115 11 60 30 161 41 224 28 152 80 410 130 640
11 52 27 129 35 170 9 41 24 118 35 170 11 52 30 140 41 195 11 55 27 129 35
165 7 36 18 90 24 120 6 30 19 98 30 150 11 52 29 147 40 210 29 157 128 656
140 705 5 22 21 94 35 160 15 66 40 176 56 245 82 339 93 389 130 569 29 145
35 201 22 201 -5 0 -27 -11 -49 -24z"/>
<path d="M13625 9384 c-157 -33 -354 -147 -593 -345 -450 -373 -629 -597 -649
-813 -7 -82 12 -128 66 -155 50 -26 132 -35 191 -22 25 5 77 17 115 26 190 44
345 56 456 35 94 -18 215 -86 294 -165 58 -57 76 -83 100 -145 26 -67 29 -87
30 -190 0 -127 -9 -156 -53 -166 -15 -4 -31 -10 -37 -14 -12 -9 -150 -38 -250
-52 -152 -21 -360 12 -468 75 -51 30 -80 76 -90 140 -5 34 -2 42 38 87 94 106
83 129 -30 63 -44 -25 -114 -71 -155 -101 -88 -65 -281 -256 -329 -326 -33
-47 -33 -51 -27 -119 3 -38 13 -84 22 -102 40 -84 134 -132 329 -167 l120 -21
159 22 c88 13 167 27 175 32 9 4 36 13 61 18 173 37 387 157 605 337 349 288
490 580 416 861 -22 85 -53 140 -114 209 -46 50 -147 117 -226 148 -60 23
-173 46 -229 46 -53 -1 -276 -37 -426 -70 -95 -20 -101 -20 -152 -4 -76 24
-89 42 -88 123 2 114 53 193 165 258 90 51 282 58 369 13 71 -36 163 -137 205
-225 l37 -75 60 32 c116 62 390 321 419 397 24 62 -116 257 -226 314 -78 40
-206 58 -290 41z"/>
<path d="M7067 9329 c-91 -21 -347 -207 -474 -343 -74 -78 -183 -223 -183
-242 0 -43 121 17 239 119 31 26 39 29 82 23 174 -23 314 -176 340 -370 18
-134 -4 -365 -52 -555 -63 -246 -54 -224 -325 -779 -123 -251 -134 -280 -113
-292 62 -39 545 398 525 474 -6 24 -11 12 174 391 199 405 270 634 295 948 l7
79 76 36 c69 32 86 36 162 36 69 1 93 -3 125 -21 99 -53 214 -231 250 -385 34
-150 25 -395 -25 -635 -27 -129 -46 -186 -117 -341 -18 -41 -33 -76 -33 -78 0
-2 -16 -39 -36 -81 -103 -224 -137 -324 -115 -337 19 -12 83 23 187 105 164
129 314 297 314 352 0 17 73 192 156 372 90 197 123 296 149 440 29 161 35
208 41 351 l7 141 46 14 c32 10 98 14 221 14 165 0 177 -1 220 -24 25 -13 75
-53 112 -88 57 -55 71 -76 92 -137 30 -85 46 -169 46 -247 0 -126 -87 -408
-206 -667 -19 -41 -34 -76 -34 -79 0 -3 -6 -19 -14 -36 -8 -18 -27 -61 -41
-97 -14 -36 -33 -81 -42 -100 -8 -19 -22 -51 -31 -70 -8 -19 -30 -68 -48 -108
-35 -75 -41 -102 -24 -102 6 0 10 -11 10 -25 0 -46 32 -65 110 -65 117 0 207
46 363 184 72 63 167 175 167 197 0 15 -27 10 -95 -17 -52 -21 -72 -24 -101
-17 -61 14 -63 32 -13 99 45 59 119 193 119 215 0 6 7 25 15 42 8 18 29 70 48
117 28 70 125 297 182 425 7 17 17 44 21 60 4 17 10 35 14 40 4 6 19 51 34
100 15 50 32 101 36 115 48 136 34 371 -31 506 -33 71 -116 153 -198 198 -70
37 -159 47 -326 35 -129 -10 -150 -13 -255 -43 -56 -16 -62 -18 -141 -55 -25
-11 -52 -21 -60 -21 -8 -1 -32 -9 -54 -20 -22 -11 -47 -20 -55 -20 -8 0 -28
-7 -44 -15 -15 -8 -33 -15 -40 -15 -6 0 -24 -7 -41 -16 -16 -8 -31 -11 -33 -6
-7 21 -76 130 -113 180 -67 88 -147 125 -266 124 -135 -2 -313 -87 -604 -289
-49 -35 -91 -63 -93 -63 -2 0 -9 21 -16 48 -30 113 -111 223 -205 277 -81 48
-196 66 -288 44z"/>
<path d="M11348 9290 c-43 -10 -95 -25 -115 -35 -73 -32 -189 -93 -253 -133
-36 -22 -110 -64 -165 -93 -195 -102 -323 -197 -490 -364 -191 -192 -243 -280
-335 -573 -93 -294 -90 -410 18 -697 17 -44 42 -101 56 -126 31 -54 116 -137
166 -161 89 -42 326 -116 419 -130 106 -16 461 -12 571 7 242 40 289 47 354
52 l69 5 -67 -77 c-36 -43 -66 -84 -66 -92 0 -51 202 65 355 204 100 92 310
323 336 369 26 48 23 57 -18 56 -74 -3 -269 -21 -292 -27 -111 -28 -305 -49
-496 -52 -228 -5 -257 -1 -442 51 -266 76 -334 119 -404 257 -36 71 -88 216
-81 224 3 3 66 5 141 5 276 0 606 33 756 74 90 26 239 101 335 169 47 34 148
124 225 202 175 174 204 224 212 368 7 108 -6 145 -82 252 -161 226 -432 328
-707 265z m-96 -470 c86 -27 175 -86 245 -158 62 -65 138 -185 130 -206 -4
-10 -38 -16 -134 -20 -70 -4 -158 -11 -195 -16 -98 -14 -583 -12 -669 2 -70
12 -72 12 -120 -15 -55 -30 -59 -25 -35 40 8 21 26 76 41 123 l27 85 75 45
c125 74 175 101 231 122 105 40 279 39 404 -2z"/>
<path d="M17805 9250 c-225 -49 -428 -180 -800 -516 -306 -278 -465 -508 -570
-829 -56 -171 -61 -412 -12 -557 66 -192 147 -309 254 -365 80 -42 251 -71
325 -55 29 6 73 14 98 18 25 3 50 10 55 14 6 4 25 11 43 15 32 7 150 64 222
107 75 46 270 212 379 322 63 64 115 115 116 114 1 -2 16 -49 33 -105 65 -205
181 -386 290 -450 41 -25 57 -28 129 -27 75 0 87 3 161 41 89 46 169 102 300
209 98 81 251 236 282 286 19 31 27 68 15 68 -18 0 -85 -36 -156 -84 -72 -50
-87 -56 -132 -56 -69 0 -126 30 -188 98 -122 137 -205 340 -231 564 l-11 98
35 72 c44 93 58 146 109 408 36 188 41 226 35 298 -3 46 -11 92 -16 103 -11
19 -11 19 -48 0 -114 -59 -376 -292 -445 -397 -87 -131 -177 -527 -177 -780 0
-94 -1 -97 -41 -164 -22 -38 -85 -115 -139 -173 l-99 -104 -76 -16 c-93 -21
-151 -21 -248 -3 -169 33 -263 122 -338 324 -97 259 -76 489 72 787 61 123 67
133 102 167 65 64 213 118 325 118 91 0 232 -34 291 -70 53 -33 121 -104 121
-127 0 -27 50 -12 122 36 129 87 344 295 383 371 15 29 15 32 -15 75 -56 81
-170 150 -275 164 -132 19 -198 19 -280 1z"/>
<path d="M13060 8081 c0 -8 141 -120 259 -207 52 -37 165 -127 222 -176 l56
-48 -8 43 c-21 117 -90 212 -207 290 -106 70 -122 75 -289 103 -18 3 -33 1
-33 -5z"/>
<path d="M14073 7649 c-23 -41 -93 -131 -147 -187 l-40 -42 39 -38 c22 -21 89
-80 149 -132 273 -235 628 -614 790 -842 l48 -68 163 0 c188 0 188 0 183 -82
l-3 -53 -127 -3 -127 -3 32 -54 31 -55 56 0 c31 0 61 -5 68 -12 12 -12 16 -95
6 -122 -3 -9 -17 -16 -30 -16 l-23 0 29 -62 c25 -52 35 -64 57 -66 43 -6 53
-20 53 -78 0 -39 -4 -55 -16 -62 -18 -10 -18 -16 11 -172 32 -173 6 -387 -66
-546 -51 -111 -169 -272 -190 -258 -5 3 -8 1 -7 -4 5 -18 -144 -130 -240 -179
-178 -92 -320 -142 -527 -187 -440 -94 -909 -110 -1410 -45 -184 23 -401 60
-560 95 -60 13 -126 26 -145 29 -19 3 -74 17 -122 30 -48 14 -93 25 -100 25
-20 0 -321 88 -451 132 -32 10 -79 25 -105 33 -26 7 -99 32 -162 55 -63 22
-133 47 -155 55 -45 15 -158 56 -285 105 -47 18 -112 42 -145 55 -53 20 -117
46 -265 105 -25 10 -74 29 -111 43 -36 14 -85 34 -110 45 -24 11 -71 31 -104
46 -33 14 -130 55 -215 92 -85 37 -186 80 -223 95 -38 16 -81 35 -95 43 -15 8
-178 82 -362 166 -322 146 -336 151 -371 141 -48 -14 -341 -13 -399 2 l-45 12
0 75 0 75 32 3 c17 2 53 -4 79 -13 62 -21 66 -14 6 13 -139 61 -170 75 -202
87 -19 8 -73 30 -120 50 -47 20 -114 48 -150 62 -36 13 -92 35 -125 48 -81 32
-212 81 -255 95 -465 161 -777 243 -1180 307 -170 27 -187 28 -555 28 -371 0
-383 -1 -530 -28 -156 -29 -316 -71 -423 -113 -34 -13 -67 -24 -73 -24 -19 0
-241 -115 -306 -158 -79 -54 -196 -154 -253 -217 -25 -27 -47 -52 -50 -55 -19
-18 -113 -167 -142 -225 -61 -119 -88 -191 -119 -316 -29 -116 -30 -127 -27
-307 4 -208 19 -294 84 -470 60 -161 123 -265 204 -335 l41 -35 -73 -47 c-77
-50 -186 -140 -228 -189 -39 -46 -76 -108 -109 -184 -29 -65 -31 -79 -31 -182
0 -102 3 -118 32 -188 82 -199 253 -345 543 -466 246 -102 496 -161 900 -213
194 -26 237 -28 570 -28 335 0 375 2 570 28 581 75 912 173 1168 344 120 81
190 161 238 274 30 70 31 78 27 183 -4 101 -7 117 -36 173 -47 91 -76 131 
-147 201 -155 150 -475 313 -867 440 -54 18 -105 32 -115 32 -10 0 -40 11 -68
24 -64 31 -214 65 -335 77 -52 5 -147 14 -210 20 -171 17 -508 15 -710 -5
-248 -24 -466 -60 -637 -105 l-82 -22 -91 46 c-122 61 -166 107 -214 220 -63
152 -103 369 -90 495 13 132 52 264 111 375 9 17 23 44 31 60 63 123 193 250
357 346 143 84 397 175 555 198 36 5 112 18 170 27 159 27 576 25 765 -4 77
-11 165 -23 195 -27 30 -3 91 -14 135 -25 44 -10 100 -21 124 -25 24 -3 81
-17 127 -31 46 -13 91 -24 100 -24 8 0 52 -12 97 -26 45 -14 125 -39 177 -56
158 -50 294 -98 545 -193 69 -26 296 -118 405 -165 41 -17 95 -40 120 -50 47
-18 143 -60 195 -85 17 -8 93 -42 170 -76 145 -64 234 -104 320 -144 190 -89
248 -115 310 -143 39 -16 126 -55 195 -85 107 -48 186 -81 460 -197 113 -47
198 -83 230 -97 19 -9 62 -26 95 -38 33 -13 96 -37 140 -55 44 -17 108 -43
143 -56 34 -13 92 -35 130 -50 37 -14 96 -36 132 -49 36 -13 110 -40 165 -60
55 -20 132 -47 170 -60 39 -13 84 -28 100 -34 28 -10 123 -40 305 -96 127 -40
223 -67 270 -76 25 -5 86 -20 135 -33 138 -38 522 -117 625 -131 25 -3 124
-16 220 -30 102 -14 254 -27 365 -30 105 -4 201 -9 215 -11 14 -2 140 0 280 6
796 32 1393 249 1704 619 140 168 208 299 262 511 33 128 44 354 24 478 -17
109 -55 267 -78 332 l-21 55 0 -118 -1 -118 -91 3 -92 3 -1 315 -1 315 -40 65
c-57 93 -55 90 -110 171 -61 91 -235 308 -335 419 -107 119 -334 346 -480 480
-69 63 -124 119 -122 123 1 5 -1 6 -5 4 -5 -3 -24 8 -43 24 -19 16 -52 43 -72
60 l-38 31 -17 -33z m-7911 -3473 c13 -8 48 -17 78 -21 94 -11 161 -26 269
-62 58 -18 130 -38 160 -43 83 -13 138 -28 181 -50 22 -11 45 -20 51 -20 31 0
328 -142 417 -200 107 -69 179 -145 194 -208 27 -103 -133 -228 -412 -322
-173 -58 -493 -125 -669 -140 -53 -5 -139 -15 -191 -22 -143 -19 -659 -17
-830 4 -74 9 -164 20 -200 23 -36 3 -105 15 -155 25 -49 10 -110 21 -135 25
-145 20 -441 125 -579 204 -169 98 -244 236 -186 341 41 73 147 169 242 217
23 12 50 26 60 32 64 35 256 107 343 130 188 48 444 90 620 102 63 4 251 6
417 3 240 -3 308 -6 325 -18z"/>
<path d="M8463 6290 c-100 -40 -143 -126 -97 -198 19 -29 105 -78 217 -123
107 -43 157 -80 157 -115 0 -67 -52 -98 -160 -97 -66 0 -171 19 -223 39 -16 6
-18 2 -15 -37 l3 -44 65 -12 c247 -46 455 26 455 157 0 70 -50 116 -183 170
-136 55 -171 72 -198 101 -24 25 -26 32 -16 53 16 36 53 57 114 63 48 4 162
-13 211 -32 14 -6 17 -1 17 33 0 50 -6 52 -170 58 -109 4 -132 2 -177 -16z"/>
<path d="M16980 6293 c-62 -21 -107 -59 -120 -99 -30 -91 33 -151 243 -230
132 -49 172 -102 122 -162 -47 -56 -193 -64 -327 -16 -22 8 -42 14 -45 14 -2
0 -3 -19 -1 -42 l3 -43 65 -12 c174 -32 338 -5 411 68 34 34 39 45 39 85 0 82
-49 123 -240 199 -114 45 -160 77 -160 110 0 29 48 71 91 80 38 9 146 -2 206
-20 49 -15 58 -8 51 37 -2 18 -13 26 -48 35 -67 17 -236 15 -290 -4z"/>
<path d="M9262 6273 c-10 -16 -34 -55 -52 -88 -19 -33 -87 -152 -152 -264 -65
-113 -118 -208 -118 -213 0 -4 24 -8 54 -8 l54 0 49 83 49 82 181 3 181 2 37
-67 c56 -100 59 -103 127 -103 32 0 58 2 58 5 0 4 -298 537 -323 577 -9 14
-24 18 -69 18 -51 0 -59 -3 -76 -27z m142 -222 c36 -62 66 -115 66 -117 0 -2
-63 -4 -140 -4 -83 0 -140 4 -140 10 0 18 135 239 142 232 4 -4 36 -58 72
-121z"/>
<path d="M9855 6287 c-3 -7 -4 -140 -3 -297 l3 -285 255 0 255 0 0 30 0 30
-192 3 -193 2 0 265 0 265 -60 0 c-40 0 -62 -4 -65 -13z"/>
<path d="M10487 6294 c-11 -12 -8 -378 4 -434 14 -65 53 -110 121 -141 47 -21
68 -24 183 -24 122 0 134 2 186 27 111 55 118 77 119 361 l0 218 -52 -3 -53
-3 -5 -227 c-5 -210 -7 -229 -26 -255 -33 -45 -69 -57 -165 -57 -100 1 -141
18 -174 74 -18 32 -20 54 -22 250 l-2 215 -54 3 c-29 2 -56 0 -60 -4z"/>
<path d="M11315 6287 c-3 -7 -4 -140 -3 -297 l3 -285 155 -3 c194 -4 306 10
386 47 118 55 177 143 177 266 0 143 -91 237 -264 270 -105 20 -447 22 -454 2z
m428 -71 c103 -31 157 -104 157 -212 0 -45 -7 -74 -26 -112 -47 -94 -116 -122
-306 -122 l-128 0 0 237 0 236 128 -6 c70 -3 149 -13 175 -21z"/>
<path d="M12500 6289 c0 -6 33 -50 73 -97 40 -48 101 -121 135 -163 l61 -77 3
-123 3 -124 58 -3 57 -3 0 125 0 126 77 87 c43 49 80 90 83 93 22 22 140 159
140 164 0 3 -24 6 -54 6 l-54 0 -84 -92 c-47 -51 -99 -110 -118 -130 -18 -21
-36 -38 -40 -38 -3 0 -55 59 -114 130 l-108 130 -59 0 c-36 0 -59 -4 -59 -11z"/>
<path d="M13705 6287 c-3 -7 -4 -140 -3 -297 l3 -285 140 -3 c234 -5 326 20
369 100 40 75 -14 155 -129 192 l-57 18 60 28 c72 34 102 72 102 130 0 93 -98
130 -340 130 -104 0 -142 -3 -145 -13z m311 -72 c68 -28 69 -98 3 -142 -31
-20 -56 -27 -114 -31 l-75 -5 0 103 0 103 77 -7 c42 -4 91 -13 109 -21z m-23
-255 c110 -41 136 -120 55 -170 -28 -17 -47 -20 -126 -18 l-94 3 1 98 c0 53 0
99 1 102 1 13 115 3 163 -15z"/>
<path d="M14390 6000 l0 -301 58 3 57 3 0 295 0 295 -57 3 -58 3 0 -301z"/>
<path d="M14735 6288 c-3 -7 -4 -141 -3 -298 l3 -285 250 0 250 0 0 30 0 30
-192 3 -193 2 0 105 0 104 153 3 152 3 0 30 0 30 -153 3 -153 3 3 92 3 92 183
3 183 2 -3 28 -3 27 -238 3 c-186 2 -239 0 -242 -10z"/>
<path d="M15375 6287 c-3 -7 -4 -140 -3 -297 l3 -285 50 0 50 0 5 224 5 224
176 -184 c97 -101 194 -203 215 -227 39 -43 40 -43 99 -40 33 2 59 6 58 11 -2
4 -3 138 -3 298 l0 290 -47 -3 -48 -3 -5 -224 -5 -224 -214 227 -214 226 -59
0 c-38 0 -60 -4 -63 -13z"/>
<path d="M16260 6000 l0 -300 250 0 250 0 0 35 0 35 -190 0 -190 0 0 105 0
105 150 0 150 0 0 35 0 35 -150 0 -150 0 0 95 0 95 181 0 180 0 -3 28 -3 27
-237 3 -238 2 0 -300z"/>
<path d="M17447 6293 c-4 -3 -7 -17 -7 -30 l0 -23 155 0 155 0 2 -267 3 -268
55 0 55 0 5 265 5 265 153 3 153 3 -3 27 -3 27 -361 3 c-198 1 -363 -1 -367
-5z"/>
<path d="M18526 6278 c-8 -13 -32 -54 -53 -93 -22 -38 -92 -162 -156 -274 -65
-111 -117 -205 -117 -208 0 -2 26 -3 57 -1 l58 3 46 80 45 80 184 0 184 0 46
-80 46 -80 63 -3 c58 -3 62 -1 57 16 -5 16 -148 272 -288 515 l-39 67 -59 0
c-51 0 -62 -3 -74 -22z m88 -131 c10 -17 34 -61 54 -97 19 -36 41 -74 49 -85
7 -11 13 -23 13 -27 0 -5 -63 -8 -140 -8 -77 0 -140 2 -140 4 0 4 26 52 100
184 19 34 37 62 40 62 3 0 13 -15 24 -33z"/>
<path d="M19120 6001 l0 -301 60 0 59 0 3 128 3 127 50 3 50 3 129 -131 128
-130 69 0 c38 0 69 4 69 9 0 5 -61 66 -135 136 -130 122 -149 145 -123 145 7
0 36 14 65 32 97 59 120 155 52 218 -49 45 -89 53 -291 57 l-188 5 0 -301z
m333 215 c100 -41 61 -158 -61 -185 -29 -6 -75 -11 -102 -11 l-50 0 0 103 c0
57 3 107 8 111 11 13 166 -1 205 -18z"/>
</g>
</svg>
